<?xml version="1.0" encoding="UTF-8"?>
<svg data-name="Layer 1" viewBox="0 0 1600 1600" xmlns="http://www.w3.org/2000/svg">
 <defs>
  <style>.cls-1{fill:none;}.cls-2{fill:#9ab1a8;stroke:#daefe7;stroke-miterlimit:10;stroke-width:1.55px;}.cls-3{clip-path:url(#a);}.cls-4{fill:#388181;}.cls-5{fill:#1c3434;}.cls-6{fill:#bdd5d5;}.cls-7{fill:#566767;}</style>
  <clipPath id="a">
   <rect class="cls-1" width="1600" height="1600"/>
  </clipPath>
 </defs>
 <rect class="cls-2" width="1600" height="1600"/>
 <g class="cls-3">
  <path class="cls-4" d="M2071,683.17s-11.55,152.52-13.56,152.37c-73.91-5.6-330.68-34.64-358.41-10.7-24.31,20.88-76.79,60.58-114.92,57.69-13.18,3.62-55.17,20.44-64.8,28.82-53.88,19.12-13.37-43.86,14.63-51,12-3.47,22.48-7.77,33.87-12.7,60.87-27-42.15-29.47-60.22-25.28-181.48,58.21-203.27,11.59-36.74-25.86,8.55-2,13.32-.88,18.39-5.24s5.38-3.85,5.68-7.74-3.38-6.88-10-7c-45.15-.82-87.67-6.76-132.57-12.41-35.88-4.49-35.07-33.9-4.06-33.92,48.65-.1,97.28,4.88,148.84,3.82,12.57-1.89,16.29-13.44-11.35-25.12-163.82-48.27-137.4-84.62-110.48-77.49,41.65,11.09,79.33,27.79,129.41,46.26,0,0,16.4,2.19,16.65-1s0-4.15-1.13-5.41c-20.77-24.18-83.34-51.41-86.7-72.61-.38-2.75,3.49-7,6.14-9.24,15.45-13.27,81.64,41,95.64,48.32l17,5.9,5.06.38c38.27,4.2,95.77,24.77,124.74,39.16,3.06.23,9.85,4.3,12.91,4.53L1716,689.3c2.71.21,52.57,1.26,52.57,1.26,100.57-4.22,201.85-10,302.49-8.92"/>
  <path class="cls-4" d="M1817.52,1467.29c-81.83-58.6-160.07-123.17-238.69-186,0,0-40.84-28.63-43.15-30.07l-17.83-11.1c-2.6-1.62-10.49-2.36-13.09-4-31.87-5.53-90.41-22.93-123.76-42.17l-4.31-2.68-17.16-5.26c-15.63-2.36-101.09,2.26-105.7-17.58-.79-3.41-1.43-9.09.51-11.08,15.25-15.11,81.8-.09,112.86-7.3,1.63-.38,2.49-1.09,4.11-3.7s-12.84-10.64-12.84-10.64c-51.32-14.71-91.58-23.52-131.72-39.2-25.93-10.17-25.75-55.1,134.92,2.82,29.2,6.92,33-4.6,24-13.55-41-31.35-83.12-56.07-122.3-84.92-25-18.35-8.26-42.55,23.33-25,39.56,22,77.36,42.33,114.26,68.37,5.42,3.79,10.16,3.55,12.22.24s1.51-3.09,0-9.6-6-8.46-11.73-15.09c-112.17-128.66-67-153.38,44.93.86,12.1,14.07,96.65,73,63.51,15.22-6.26-10.71-12.19-20.38-19.8-30.27-18.38-22.29-13.82-97,18.33-49.76,2.81,12.46,26.73,50.85,35.22,61.55,32.46,20.21,51.32,83.26,58.57,114.47,8.22,35.7,232.47,164.09,295.39,203.27,1.7,1.06-79.15,130.9-79.15,130.9"/>
  <path class="cls-4" d="M632-295.46s152.23-14.85,152.43-12.85c7.19,73.77,22.74,331.71,51.09,354.91,24.75,20.35,72.88,65.23,76.6,103.29,5.83,12.36,29.62,50.83,39.54,58.87,28.1,49.79-40.91,20.71-52.73-5.65-5.48-11.21-11.52-20.81-18.34-31.18-37.06-55.32-21.78,46.59-14.54,63.67,88.55,168.76,46.37,198.25-19.16,40.64-3.4-8.09-3.16-13-8.32-17.21s-4.72-4.64-8.6-4.26-6.2,4.52-5.21,11.06c7,44.62,8.42,87.52,10.57,132.73,1.74,36.12-27.37,40.38-32.72,9.83-8.47-47.91-11.92-96.67-21.83-147.28-4-12.06-16-13.73-22.8,15.5-19.38,169.68-59.73,149.9-57.34,122.16,3.76-42.94,13.73-82.92,23.32-135.44,0,0-.66-16.54-3.84-16.23s-4.08.75-5.14,2c-20.25,24.62-36.31,90.94-56.62,97.9-2.64.85-7.45-2.24-10.16-4.46-15.73-12.93,26.33-87.47,31.15-102.53l2.9-17.71-.49-5.05c-2.44-38.42,7.93-98.6,17.12-129.62-.3-3.05,2.54-10.45,2.24-13.5l-2-20.91c-.26-2.7-7.8-52-7.8-52-21.45-98.35-44.6-197.12-60.81-296.45"/>
  <path class="cls-4" d="M1448-180.58c-43.66,90.68-93.81,178.87-142.22,267.13,0,0-21.18,45.16-22.2,47.68l-7.87,19.48c-1.15,2.84-.52,10.74-1.67,13.58,0,32.35-7,93-20.26,129.17l-1.9,4.71L1249.7,319c.36,15.8,19.61,99.2.86,107.15-3.23,1.37-8.71,3-11,1.41-17.51-12.42-14.15-80.57-26.6-109.92-.65-1.54-1.5-2.26-4.35-3.41s-8.27,14.48-8.27,14.48c-5.67,53.08-7.42,94.26-16,136.5-5.56,27.29-49.85,34.84-20.43-133.39,1.8-30-10.21-31.75-17.48-21.32-23.83,45.74-40.94,91.53-62.62,135.08-13.78,27.78-40.49,15.46-28.6-18.69,14.86-42.75,28.4-83.49,47.7-124.31,2.81-6,1.75-10.62-1.86-12.08s-3.31-1-9.45,1.65-7.3,7.36-12.85,14.16c-107.45,132.62-139.57,92.4-6.87-44.41,11.78-14.33,55.27-107.76,4.07-65.19-9.47,8-18,15.52-26.41,24.71-18.8,21.94-93.21,30.3-52.17-9.5,11.79-4.91,45.49-35.08,54.58-45.28,14.33-35.45,73.19-64.87,102.69-77.39C1188.42,75,1276.33-168,1304.11-236.72c.75-1.86,142.56,55.46,142.56,55.46"/>
  <path class="cls-4" d="M1045.34,1962.55s-152.23,14.85-152.43,12.85c-7.19-73.77-22.74-331.71-51.09-354.91-24.75-20.35-72.88-65.23-76.6-103.29-5.83-12.36-29.62-50.83-39.54-58.87-28.1-49.79,40.91-20.71,52.73,5.65,5.48,11.21,11.52,20.81,18.34,31.18,37.06,55.32,21.78-46.59,14.54-63.67-88.55-168.76-46.37-198.25,19.16-40.64,3.4,8.09,3.16,13,8.32,17.21s4.72,4.64,8.6,4.26,6.2-4.52,5.21-11.06c-7-44.62-8.42-87.52-10.57-132.73-1.74-36.12,27.37-40.38,32.72-9.83,8.47,47.91,11.92,96.67,21.83,147.28,4,12.06,16,13.73,22.8-15.5,19.38-169.68,59.73-149.9,57.34-122.16-3.76,42.94-13.73,82.92-23.32,135.44,0,0,.66,16.54,3.84,16.23s4.08-.75,5.14-2c20.25-24.62,36.31-90.94,56.62-97.9,2.64-.85,7.45,2.24,10.16,4.46,15.73,12.93-26.33,87.47-31.15,102.53l-2.9,17.71.49,5.05c2.44,38.42-7.93,98.6-17.12,129.62.3,3.05-2.54,10.45-2.24,13.5l2,20.91c.26,2.7,7.8,52,7.8,52,21.45,98.35,44.6,197.12,60.81,296.45"/>
  <path class="cls-4" d="M229.31,1847.67C273,1757,323.12,1668.8,371.53,1580.54c0,0,21.18-45.16,22.2-47.68l7.87-19.48c1.15-2.84.52-10.74,1.67-13.58,0-32.35,7-93,20.26-129.17l1.9-4.71,2.23-17.81c-.36-15.8-19.61-99.2-.86-107.15,3.23-1.37,8.71-3,11-1.41,17.51,12.42,14.15,80.57,26.6,109.92.65,1.54,1.5,2.26,4.35,3.41s8.27-14.48,8.27-14.48c5.67-53.08,7.42-94.26,16-136.5,5.56-27.29,49.85-34.84,20.43,133.39-1.8,30,10.21,31.75,17.48,21.32,23.83-45.74,40.94-91.53,62.62-135.08,13.78-27.78,40.49-15.46,28.6,18.69-14.86,42.75-28.4,83.49-47.7,124.31-2.81,6-1.75,10.62,1.86,12.08s3.31,1,9.45-1.65,7.3-7.36,12.85-14.16c107.45-132.62,139.57-92.4,6.87,44.41-11.78,14.33-55.27,107.76-4.07,65.19,9.47-8,18-15.52,26.41-24.71,18.8-21.94,93.21-30.3,52.17,9.5-11.79,4.91-45.49,35.08-54.58,45.28-14.33,35.45-73.19,64.87-102.69,77.39C488.93,1592.1,401,1835.09,373.25,1903.81c-.75,1.86-142.56-55.46-142.56-55.46"/>
  <path class="cls-4" d="M-373.22,815.26s11.55-152.52,13.56-152.37c73.91,5.6,330.68,34.64,358.41,10.7C23.06,652.71,75.54,613,113.67,615.9c13.18-3.62,55.17-20.44,64.8-28.82,53.88-19.12,13.37,43.86-14.63,51-12,3.47-22.48,7.77-33.87,12.7-60.87,27,42.15,29.47,60.22,25.28,181.48-58.21,203.27-11.59,36.74,25.86-8.55,2-13.32.88-18.39,5.24s-5.38,3.85-5.68,7.74,3.38,6.88,10,7c45.15.82,87.67,6.76,132.57,12.41,35.88,4.49,35.07,33.9,4.06,33.92-48.65.1-97.28-4.88-148.84-3.82-12.57,1.89-16.29,13.44,11.35,25.12C375.83,837.8,349.41,874.15,322.49,867c-41.65-11.09-79.33-27.79-129.41-46.26,0,0-16.4-2.19-16.65,1s0,4.15,1.13,5.41c20.77,24.18,83.34,51.41,86.7,72.61.38,2.75-3.49,7-6.14,9.24-15.45,13.27-81.64-41-95.64-48.32l-17-5.9-5.06-.38c-38.27-4.2-95.77-24.77-124.74-39.16C12.65,815,5.86,811,2.8,810.72l-20.95-1.59c-2.71-.21-52.57-1.26-52.57-1.26-100.57,4.22-201.85,10-302.49,8.92"/>
  <path class="cls-4" d="M-119.72,31.14c81.83,58.6,160.07,123.17,238.69,186,0,0,40.84,28.63,43.15,30.07L180,258.35c2.6,1.62,10.49,2.36,13.09,4,31.87,5.53,90.41,22.93,123.76,42.17l4.31,2.68,17.16,5.26C353.9,314.81,439.36,310.19,444,330c.79,3.41,1.43,9.09-.51,11.08-15.25,15.11-81.8.09-112.86,7.3-1.63.38-2.49,1.09-4.11,3.7s12.84,10.64,12.84,10.64c51.32,14.71,91.58,23.52,131.72,39.2,25.93,10.17,25.75,55.1-134.92-2.82-29.2-6.92-33,4.6-24,13.55,41,31.35,83.12,56.07,122.3,84.92,25,18.35,8.26,42.55-23.33,25-39.56-22-77.36-42.33-114.26-68.37-5.42-3.79-10.16-3.55-12.22-.24s-1.51,3.09,0,9.6,6,8.46,11.73,15.09c112.17,128.66,67,153.38-44.93-.86-12.1-14.07-96.65-73-63.51-15.22,6.26,10.71,12.19,20.38,19.8,30.27,18.38,22.29,13.82,97-18.33,49.76-2.81-12.46-26.73-50.85-35.22-61.55-32.46-20.21-51.32-83.26-58.57-114.47-8.22-35.7-232.47-164.09-295.39-203.27-1.7-1.06,79.15-130.9,79.15-130.9"/>
  <path class="cls-5" d="M1647.75,1749.7s-131.33,78.41-132.36,76.68c-38-63.64-162.16-290.26-197.7-299.15-31.07-7.84-93.75-27.88-113.36-60.71-10.55-8.69-48.48-33.32-60.88-36.36-46.66-33,28.15-36.19,50.09-17.4,9.74,7.79,19.3,13.91,29.89,20.37,57.12,34.21-.19-51.43-14-63.79-152.12-114.82-126.56-159.49,0-44.93,6.52,5.86,8.4,10.38,14.87,12s6.25,2.18,9.59.18,3.68-6.73,0-12.23c-25.34-37.38-45-75.56-66.22-115.52-17-31.92,7.51-48.2,25.39-22.86,28.11,39.71,52,82.33,82.61,123.87,8.78,9.19,20.37,5.57,14-23.75-54.9-161.72-10-161.06-.29-134.94,14.93,40.43,23,80.85,36.73,132.43,0,0,7.66,14.67,10.4,13s3.37-2.42,3.77-4c7.8-30.91-6-97.73,9.42-112.7,2-1.9,7.69-1.16,11.09-.3,19.74,5,13.52,90.34,15.59,106l4.94,17.26,2.6,4.36c18.61,33.7,34.91,92.56,39.84,124.53,1.57,2.63,2.16,10.53,3.74,13.16l10.77,18c1.39,2.33,29.25,43.7,29.25,43.7,61.38,79.78,124.47,159.22,181.53,242.13"/>
  <path class="cls-5" d="M860.76,1994.13c.77-100.64,8.49-201.8,14.59-302.27,0,0-.12-49.88-.28-52.59l-1.19-21c-.17-3.06-4.11-9.93-4.29-13-13.84-29.24-33.33-87.12-36.82-125.45l-.29-5.07-5.58-17.06c-7.07-14.14-60.07-81.34-46.52-96.53,2.33-2.62,6.61-6.41,9.35-6,21.14,3.76,47.19,66.82,71,88,1.25,1.11,2.33,1.4,5.39,1.23s1.3-16.62,1.3-16.62c-17.53-50.42-33.52-88.41-43.83-130.26-6.62-27,30.21-52.79,75.41,111.91,11.16,27.85,22.78,24.35,24.91,11.82,2-51.54-2-100.25-1-148.89.6-31,30-31.26,33.84,4.69,4.81,45,10,87.62,9.93,132.78,0,6.62,3,10.35,6.84,10.13s3.4-.55,7.84-5.53,3.46-9.77,5.58-18.29c40.56-165.8,86.77-143.13,25.17,37.22-4.53,18-4,121,24.14,60.69,5.15-11.29,9.64-21.71,13.33-33.62,7.63-27.86,71.36-67.19,51.23-13.67-8.56,9.47-26.17,51.14-30,64.24,2.17,38.18-38.5,89.91-59.84,113.82-24.45,27.28-.23,284.55,4,358.55.11,2-152.59,10.7-152.59,10.7"/>
  <path class="cls-5" d="M1618.86,9.7s99.82,115.89,98.3,117.2c-56.16,48.37-258.05,209.65-260.69,246.2-2.38,32-11.34,97.15-40.31,122.11-6.74,11.88-24.49,53.49-25.35,66.23-24.52,51.65-40.49-21.51-25.75-46.36,6-10.93,10.38-21.4,14.92-32.95,23.88-62.16-50.63,9-60.43,24.79-86.95,169.6-135.35,152.1-44.26,7.75,4.65-7.44,8.78-10.06,9.28-16.72s1.07-6.53-1.47-9.48-7.26-2.47-12,2.12c-32.47,31.39-66.7,57.29-102.41,85.09-28.52,22.23-48.77.89-26.88-21.08,34.29-34.52,72.16-65.42,107.82-102.68,7.54-10.23,2-21-25.81-9.71-149.87,81.89-156.94,37.52-132.88,23.49,37.26-21.66,75.7-36.54,124.15-59,0,0,13.14-10.07,11.06-12.48s-3-2.9-4.63-3c-31.79-2.37-95.25,22.7-112.64,10.1-2.22-1.67-2.46-7.38-2.2-10.88,1.51-20.31,86.67-28.86,101.75-33.59l16.15-7.83,3.85-3.31c30-24.13,85.17-50.31,115.82-60.66,2.33-2,10-3.94,12.33-5.94l15.92-13.71c2.06-1.77,38-36.33,38-36.33,68-74.18,135.45-150,207.31-220.46"/>
  <path class="cls-5" d="M1995,742.93c-99.28,16.55-200.25,26.34-300.28,37.61,0,0-49.11,8.7-51.76,9.32l-20.46,4.78c-3,.7-9.08,5.76-12.07,6.46-26.42,18.66-80.09,47.82-117.26,57.84l-4.94,1.16-15.85,8.43c-12.71,9.4-69.8,73.17-87.09,62.42-3-1.85-7.45-5.41-7.49-8.19.07-21.47,57.71-58,74.53-85.06.88-1.42,1-2.53.28-5.52s-16.6,1.58-16.6,1.58c-46.66,25.94-81.32,48.23-120.78,65.57-25.51,11.18-57.2-20.68,97.27-93.53,25.52-15.78,20.07-26.63,7.36-26.57-51.12,6.86-98.4,19.25-146.49,26.62-30.65,4.74-36-24.2-1.2-34.14,43.5-12.48,84.6-24.87,129.09-32.61,6.52-1.16,9.69-4.69,8.8-8.48s-1.12-3.25-6.8-6.77-10.22-1.73-19-2.35c-170.3-11.45-155.92-60.87,32.34-31.2,18.5,1.37,119.92-16.89,55.63-34.22-12-3.13-23-5.76-35.41-7.35-28.76-2.73-78.46-58.74-22.28-48.12,10.8,6.81,54.88,17,68.45,18.54,37.23-8.71,95.19,22.47,122.41,39.37,31.08,19.4,280.35-48.71,352.52-65.58,2-.46,36.78,148.48,36.78,148.48"/>
  <path class="cls-5" d="m11.13 1648.2s-99.82-115.89-98.3-117.2c56.16-48.37 258.05-209.65 260.69-246.2 2.38-32 11.34-97.15 40.31-122.11 6.74-11.88 24.49-53.49 25.35-66.23 24.52-51.65 40.49 21.51 25.75 46.36-6 10.93-10.38 21.4-14.92 32.95-23.88 62.16 50.63-9 60.43-24.79 86.95-169.6 135.35-152.1 44.26-7.75-4.65 7.44-8.78 10.06-9.28 16.72s-1.07 6.53 1.47 9.48 7.26 2.47 12-2.12c32.47-31.39 66.7-57.29 102.41-85.09 28.52-22.23 48.77-0.89 26.88 21.08-34.29 34.52-72.16 65.42-107.82 102.68-7.54 10.23-2 21 25.81 9.71 149.87-81.89 156.94-37.52 132.88-23.49-37.26 21.66-75.7 36.54-124.15 59 0 0-13.14 10.07-11.06 12.48s3 2.9 4.63 3c31.79 2.37 95.25-22.7 112.64-10.1 2.22 1.67 2.46 7.38 2.2 10.88-1.51 20.31-86.67 28.86-101.75 33.59l-16.15 7.83-3.85 3.31c-30 24.13-85.17 50.31-115.82 60.66-2.33 2-10 3.94-12.33 5.94l-15.92 13.71c-2.06 1.77-38 36.33-38 36.33-68 74.18-135.45 150-207.31 220.46"/>
  <path class="cls-5" d="M-365,914.95c99.28-16.55,200.25-26.34,300.28-37.61,0,0,49.11-8.7,51.76-9.32L7.5,863.24c3-.7,9.08-5.76,12.07-6.46C46,838.12,99.65,809,136.82,798.94l4.94-1.16,15.85-8.43c12.71-9.4,69.8-73.17,87.09-62.42,3,1.85,7.45,5.41,7.49,8.19-.07,21.47-57.71,58-74.53,85.06-.88,1.42-1,2.53-.28,5.52s16.6-1.58,16.6-1.58c46.66-25.94,81.32-48.23,120.78-65.57,25.51-11.18,57.2,20.68-97.27,93.53-25.52,15.78-20.07,26.63-7.36,26.57,51.12-6.86,98.4-19.25,146.49-26.62,30.65-4.74,36,24.2,1.2,34.14-43.5,12.48-84.6,24.87-129.09,32.61-6.52,1.16-9.69,4.69-8.8,8.48s1.12,3.25,6.8,6.77,10.22,1.73,19,2.35c170.3,11.45,155.92,60.87-32.34,31.2-18.5-1.37-119.92,16.89-55.63,34.22,12,3.13,23,5.76,35.41,7.35,28.76,2.73,78.46,58.74,22.28,48.12-10.8-6.81-54.88-17-68.45-18.54-37.23,8.71-95.19-22.47-122.41-39.37C-6.54,980-255.81,1048.07-328,1065c-2,.46-36.78-148.48-36.78-148.48"/>
  <path class="cls-5" d="M131.89-172.25s131.33-78.41,132.36-76.68c38,63.64,162.16,290.26,197.7,299.15C493,58,555.7,78.08,575.3,110.92c10.55,8.69,48.48,33.32,60.88,36.36,46.66,33-28.15,36.19-50.09,17.4-9.74-7.79-19.3-13.91-29.89-20.37-57.12-34.21.19,51.43,14,63.79,152.12,114.82,126.56,159.49,0,44.93-6.52-5.86-8.4-10.38-14.87-12s-6.25-2.18-9.59-.18-3.68,6.73,0,12.23c25.34,37.38,45,75.56,66.22,115.52,17,31.92-7.51,48.2-25.39,22.86-28.11-39.71-52-82.33-82.61-123.87-8.78-9.19-20.37-5.57-14,23.75,54.9,161.72,10,161.06.29,134.94-14.93-40.43-23-80.85-36.73-132.43,0,0-7.66-14.67-10.4-13s-3.37,2.42-3.77,4c-7.8,30.91,6,97.73-9.42,112.7-2,1.9-7.69,1.16-11.09.3-19.74-5-13.52-90.34-15.59-106l-4.94-17.26-2.6-4.36c-18.61-33.7-34.91-92.56-39.84-124.53-1.57-2.63-2.16-10.53-3.74-13.16l-10.77-18c-1.39-2.33-29.25-43.7-29.25-43.7C250.78-9,187.69-88.46,130.63-171.37"/>
  <path class="cls-5" d="M918.87-416.69c-.77,100.64-8.49,201.8-14.59,302.27,0,0,.12,49.88.28,52.59l1.19,21c.17,3.06,4.11,9.93,4.29,13C923.89,1.38,943.38,59.26,946.86,97.6l.29,5.07,5.58,17.06c7.07,14.14,60.07,81.34,46.52,96.53-2.33,2.62-6.61,6.41-9.35,6-21.14-3.76-47.19-66.82-71-88-1.25-1.11-2.33-1.4-5.39-1.23s-1.3,16.62-1.3,16.62C929.76,200,945.75,238,956.06,279.83c6.62,27-30.21,52.79-75.41-111.91-11.16-27.85-22.78-24.35-24.91-11.82-2,51.54,2,100.25,1,148.89-.6,31-30,31.26-33.84-4.69-4.81-45-10-87.62-9.93-132.78,0-6.62-3-10.35-6.84-10.13s-3.4.55-7.84,5.53-3.46,9.77-5.58,18.29C752.18,347,706,324.34,767.57,144c4.53-18,4-121-24.14-60.69-5.15,11.29-9.64,21.71-13.33,33.62-7.63,27.86-71.36,67.19-51.23,13.67,8.56-9.47,26.17-51.14,30-64.24-2.17-38.18,38.5-89.91,59.84-113.82,24.45-27.28.23-284.55-4-358.55-.11-2,152.59-10.7,152.59-10.7"/>
  <path class="cls-6" d="M2005.32,950s-48.2,145.16-50.1,144.53c-70.34-23.36-312.4-113.8-345.12-97.3-28.65,14.37-89.19,40.15-125.48,28.1-13.66.31-58.48,6.45-69.85,12.25-56.91,5.48-2.33-45.79,26.56-45.9,12.46-.46,23.7-2.08,35.94-4.11,65.6-11.42-33.75-38.81-52.3-39.13-190.18,12.46-200-38.06-29.37-34,8.77.18,13.14,2.37,19.11-.62s6.16-2.43,7.38-6.13-1.61-7.5-8-9.25c-43.61-11.74-83.41-27.82-125.6-44.19-33.72-13.06-25.8-41.4,4.29-33.89,47.23,11.7,93.19,28.33,143.47,39.8,12.65,1.22,19.06-9.09-4.92-27.13-147.22-86.56-112.77-115.42-88.39-102,37.72,20.86,70.22,46.2,114.33,76.26,0,0,15.38,6.1,16.39,3.08s1-4,.22-5.52c-14.29-28.5-68.38-70.08-66.5-91.47.3-2.76,5.07-5.9,8.2-7.47,18.2-9.13,69.26,59.56,81.07,70.07l15,9.84,4.82,1.6c36.11,13.36,86.9,47.26,111.52,68.24,2.91,1,8.52,6.56,11.43,7.53l19.94,6.62c2.58.86,50.7,14,50.7,14,98.59,20.3,198.26,39.22,295.63,64.7"/>
  <path class="cls-6" d="M1569.22,1649.19c-65.17-76.7-125.42-158.32-186.45-238.37,0,0-32.68-37.68-34.57-39.63l-14.61-15.1c-2.13-2.21-9.6-4.83-11.74-7-29.58-13.09-82.15-44.17-109.84-70.92l-3.53-3.65-15.37-9.27c-14.59-6.08-98.62-22.33-98.28-42.69.06-3.5.82-9.17,3.18-10.63,18.46-11,79.38,19.76,111.26,20.28,1.67,0,2.68-.46,4.88-2.59s-9.88-13.43-9.88-13.43c-46.22-26.72-83.14-45-118.28-70-22.69-16.15-11.62-59.7,130.2,35.45,26.65,13.79,33.16,3.55,26.58-7.32-32.14-40.34-67-74.56-98.06-112-19.8-23.86,2.3-43.28,28.68-18.56,33,30.93,64.78,59.83,94.27,94,4.34,5,9,5.91,11.8,3.2s2.21-2.63,2.32-9.31-3.76-9.66-7.72-17.49c-77.62-152-27.82-165.05,43.38,11.73,8.32,16.58,76.07,94.24,57.93,30.17-3.48-11.91-6.89-22.73-11.87-34.17-12.42-26.08,10.12-97.49,29.85-43.83-.29,12.77,13.6,55.81,19.24,68.26,26.59,27.48,29.59,93.22,29.06,125.26-.69,36.63,185.74,215.57,237.28,268.84,1.4,1.44-108.53,107.8-108.53,107.8"/>
  <path class="cls-6" d="M846.61-348.45s151.29,22.52,151,24.5C986.7-250.64,939.22,3.37,961.1,32.76c19.08,25.75,54.89,81,49.26,118.78,2.66,13.4,16.41,56.5,24.08,66.7,15.18,55.12-44.71,10.17-49.78-18.27-2.6-12.2-6.12-23-10.23-34.69C951.9,102.63,942,205.2,944.88,223.53c45,185.2-3.1,203.58-28.44,34.78-1.33-8.67.08-13.35-3.9-18.72s-3.46-5.65-7.31-6.22-7.11,2.88-7.73,9.47c-4.07,45-13.06,87-21.93,131.33-7.07,35.46-36.34,32.53-34.13,1.6,3.41-48.53,11.88-96.67,14.54-148.18-1-12.67-12.23-17.21-25.88,9.51-60,159.92-94.3,130.94-85.25,104.6C758.9,301,778.28,264.6,800.31,216c0,0,3.37-16.2.21-16.67s-4.14-.26-5.48.74c-25.62,19-57.28,79.41-78.67,81.24-2.77.18-6.69-4-8.77-6.79-12.12-16.36,46.76-78.47,55.08-91.91l7.11-16.48.75-5c6.95-37.86,31.61-93.74,48-121.6.45-3,5-9.52,5.45-12.55l3.09-20.78c.4-2.68,5-52.35,5-52.35,3-100.61,4.54-202.05,12.9-302.35"/>
  <path class="cls-6" d="M1610.42-39.09C1546.07,38.3,1476,111.69,1407.66,185.57c0,0-31.5,38.67-33.1,40.87l-12.36,17c-1.81,2.48-3.11,10.29-4.91,12.77-7.81,31.39-29.39,88.52-51,120.4l-3,4.1-6.49,16.74c-3.48,15.42-5,101-25.15,104.16-3.46.55-9.17.77-11-1.3-14-16.3,5.81-81.6.85-113.09-.26-1.65-.91-2.56-3.39-4.37s-11.54,12-11.54,12c-18.38,50.12-30.06,89.64-48.59,128.55-12,25.13-56.82,21.71,12.53-134.36,9-28.62-2.2-33.28-11.78-24.92-34.22,38.59-61.92,78.87-93.51,115.86-20.1,23.61-43,5.18-23.21-25.07,24.78-37.87,47.8-74.11,76.42-109,4.18-5.14,4.27-9.88,1.12-12.17s-3-1.73-9.57-.69-8.87,5.37-15.9,10.62c-136.41,102.6-157.81,55.79,4.1-44.75,14.9-11.05,79.75-91.14,19.76-62.25-11.13,5.47-21.21,10.69-31.62,17.57C1102.79,271,1028.57,261,1078,232.36c12.63-1.91,52.64-23,63.93-30.69,22.5-30.92,86.74-45.18,118.4-50.17,36.2-5.62,180.42-220,224-280,1.18-1.62,124.86,88.38,124.86,88.38"/>
  <path class="cls-6" d="M700,1942.39s-151.29-22.52-151-24.5c10.91-73.31,58.38-327.32,36.51-356.71-19.08-25.75-54.89-81-49.26-118.78-2.66-13.4-16.41-56.5-24.08-66.7-15.18-55.12,44.71-10.17,49.78,18.27,2.6,12.2,6.12,23,10.23,34.69,22.53,62.66,32.43-39.92,29.55-58.25-45-185.2,3.1-203.58,28.44-34.78,1.33,8.67-.08,13.35,3.9,18.72s3.46,5.65,7.31,6.22,7.11-2.88,7.73-9.47c4.07-45,13.06-87,21.93-131.33,7.07-35.46,36.34-32.53,34.13-1.6-3.41,48.53-11.88,96.67-14.54,148.18,1,12.67,12.23,17.21,25.88-9.51,60-159.92,94.3-130.94,85.25-104.6-14.06,40.74-33.43,77.12-55.47,125.74,0,0-3.37,16.2-.21,16.67s4.14.26,5.48-.74c25.62-19,57.28-79.41,78.67-81.24,2.77-.18,6.69,4,8.77,6.79,12.12,16.36-46.76,78.47-55.08,91.91l-7.11,16.48-.75,5c-6.95,37.86-31.61,93.74-48,121.6-.45,3-5,9.52-5.45,12.55l-3.09,20.78c-.4,2.68-5,52.35-5,52.35-3,100.61-4.54,202.05-12.9,302.35"/>
  <path class="cls-6" d="M-63.83,1633c64.35-77.39,134.39-150.78,202.75-224.66,0,0,31.5-38.67,33.1-40.87l12.36-17c1.81-2.48,3.11-10.29,4.91-12.77,7.81-31.39,29.39-88.52,51-120.4l3-4.1,6.49-16.74c3.48-15.42,5-101,25.15-104.16,3.46-.55,9.17-.77,11,1.3,14,16.3-5.81,81.6-.85,113.09.26,1.65.91,2.56,3.39,4.37s11.54-12,11.54-12c18.38-50.12,30.06-89.64,48.59-128.55,12-25.13,56.82-21.71-12.53,134.36-9,28.62,2.2,33.28,11.78,24.92,34.22-38.59,61.92-78.87,93.51-115.86,20.1-23.61,43-5.18,23.21,25.07-24.78,37.87-47.8,74.11-76.42,109-4.18,5.14-4.27,9.88-1.12,12.17s3,1.73,9.57.69,8.87-5.37,15.9-10.62c136.41-102.6,157.81-55.79-4.1,44.75-14.9,11.05-79.75,91.14-19.76,62.25,11.13-5.47,21.21-10.69,31.62-17.57,23.55-16.72,97.78-6.79,48.31,21.87-12.63,1.91-52.64,23-63.93,30.69-22.5,30.92-86.74,45.18-118.4,50.17-36.2,5.62-180.42,220-224,280C61,1724-62.66,1634-62.66,1634"/>
  <path class="cls-6" d="M-398,485.32s48.2-145.16,50.1-144.53c70.34,23.36,312.4,113.8,345.12,97.3,28.65-14.37,89.19-40.15,125.48-28.1,13.66-.31,58.48-6.45,69.85-12.25,56.91-5.48,2.33,45.79-26.56,45.9-12.46.46-23.7,2.08-35.94,4.11-65.6,11.42,33.75,38.81,52.3,39.13,190.18-12.46,200,38.06,29.37,34-8.77-.18-13.14-2.37-19.11.62s-6.16,2.43-7.38,6.13,1.61,7.5,8,9.25c43.61,11.74,83.41,27.82,125.6,44.19,33.72,13.06,25.8,41.4-4.29,33.89-47.23-11.7-93.19-28.33-143.47-39.8-12.65-1.22-19.06,9.09,4.92,27.13,147.22,86.56,112.77,115.42,88.39,102-37.72-20.86-70.22-46.2-114.33-76.26,0,0-15.38-6.1-16.39-3.08s-1,4-.22,5.52c14.29,28.5,68.38,70.08,66.5,91.47-.3,2.76-5.07,5.9-8.2,7.47-18.2,9.13-69.26-59.56-81.07-70.07l-15-9.84-4.82-1.6C54.75,634.53,4,600.62-20.67,579.64c-2.91-1-8.52-6.56-11.43-7.53L-52,565.49c-2.58-.86-50.7-14-50.7-14-98.59-20.3-198.26-39.22-295.63-64.7"/>
  <path class="cls-6" d="M38.11-213.91c65.17,76.7,125.42,158.32,186.45,238.37,0,0,32.68,37.68,34.57,39.63l14.61,15.1c2.13,2.21,9.6,4.83,11.74,7C315,99.32,367.62,130.4,395.3,157.15l3.53,3.65,15.37,9.27c14.59,6.08,98.62,22.33,98.28,42.69-.06,3.5-.82,9.17-3.18,10.63-18.46,11-79.38-19.76-111.26-20.28-1.67,0-2.68.46-4.88,2.59S403,219.13,403,219.13c46.22,26.72,83.14,45,118.28,70,22.69,16.15,11.62,59.7-130.2-35.45C364.48,239.86,358,250.1,364.54,261c32.14,40.34,67,74.56,98.06,112,19.8,23.86-2.3,43.28-28.68,18.56-33-30.93-64.78-59.83-94.27-94-4.34-5-9-5.91-11.8-3.2s-2.21,2.63-2.32,9.31,3.76,9.66,7.72,17.49c77.62,152,27.82,165.05-43.38-11.73-8.32-16.58-76.07-94.24-57.93-30.17,3.48,11.91,6.89,22.73,11.87,34.17,12.42,26.08-10.12,97.49-29.85,43.83.29-12.77-13.6-55.81-19.24-68.26-26.59-27.48-29.59-93.22-29.06-125.26.69-36.63-185.74-215.57-237.28-268.84-1.4-1.44,108.53-107.8,108.53-107.8"/>
  <path class="cls-7" d="M1843.39,107.47s64.12,138.87,62.3,139.71C1838.4,278.25,1600,377.83,1587.37,412.24c-11.07,30.07-37.6,90.29-72.32,106.32-9.75,9.57-38.25,44.7-42.58,56.71-37.77,42.92-33-31.81-12-51.65,8.78-8.86,15.86-17.73,23.4-27.58,40-53.2-51.17-5.23-64.91,7.23-130.21,139.17-171.94,109-44.69-4.71,6.52-5.87,11.21-7.26,13.52-13.52s2.83-6,1.19-9.52-6.31-4.37-12.16-1.28C1337,495.5,1296.93,511,1255,527.91c-33.53,13.53-47.14-12.55-20.05-27.66,42.45-23.76,87.36-43.07,131.89-69.09,10.06-7.77,7.69-19.67-22.14-16.42-166.61,37.55-161.21-7.07-134.22-13.94,41.78-10.58,82.82-14.33,135.57-22.56,0,0,15.4-6.07,14.06-9s-2.05-3.6-3.62-4.18c-29.92-11-97.82-4.36-111.08-21.25-1.67-2.22-.34-7.77.87-11.06,7-19.11,91.27-3.92,107.07-4.33l17.68-3.09,4.61-2.13c35.47-15,95.72-25,128-26.49,2.79-1.29,10.7-1,13.49-2.33l19.07-8.81c2.46-1.14,46.54-24.48,46.54-24.48,85.81-52.62,171.46-107,259.92-155"/>
  <path class="cls-7" d="M2003.5,915.84c-100-11.38-199.78-29.71-299.05-46.37,0,0-49.61-5.14-52.32-5.27l-21-1c-3.06-.15-10.31,3-13.38,2.89-30.53,10.68-90.14,24-128.64,23.39l-5.07-.25L1466.5,893c-14.8,5.54-87.22,51.16-100.9,36.08-2.35-2.6-5.67-7.25-5-9.93,6-20.62,71.42-39.88,95-61.3,1.24-1.12,1.64-2.17,1.79-5.23s-16.39-3-16.39-3c-52,12.12-91.45,24-134.15,29.85-27.6,3.74-49.31-35.61,119.23-63.19,28.88-8.16,26.62-20.09,14.38-23.52-51-7.45-99.9-8.54-148.17-14.67-30.77-3.86-27.92-33.15,8.23-33.16,45.26,0,88.18-.66,133.09,4.13,6.58.68,10.61-1.85,10.8-5.74s-.19-3.44-4.67-8.38-9.35-4.47-17.6-7.48C1261.63,669.57,1289,626,1461.9,706.28c17.41,6.4,119.95,16.72,62.89-17.61-10.68-6.31-20.57-11.87-32-16.8-26.9-10.53-59.29-78-8.2-52.39,8.52,9.51,48.1,31.41,60.72,36.64,38.19,1.86,85.35,47.76,106.88,71.5,24.55,27.19,282.94,30.22,357,33.83,2,.1-5.45,152.87-5.45,152.87"/>
  <path class="cls-7" d="M110-47.23s125.77-87,126.91-85.4c42.18,60.94,181.28,278.72,217.34,285.19,31.53,5.74,95.41,21.52,117.18,53,11.11,8,50.61,30,63.19,32.19,48.78,29.83-25.66,38-48.81,20.72-10.24-7.12-20.19-12.58-31.19-18.31-59.29-30.3,3.64,51.3,18.28,62.7,159.49,104.34,137,150.63,3,44.83-6.9-5.41-9.08-9.79-15.64-11s-6.38-1.75-9.58.46-3.22,7,.83,12.2c27.79,35.59,49.94,72.37,73.82,110.81,19.1,30.7-4.26,48.59-23.8,24.51-30.71-37.74-57.45-78.65-90.74-118-9.38-8.58-20.7-4.19-12.37,24.64,65.64,157.67,20.76,160,9.35,134.62-17.61-39.34-28.36-79.13-45.54-129.67,0,0-8.63-14.12-11.25-12.31s-3.2,2.64-3.49,4.28c-5.71,31.36,12.53,97.11-1.83,113.08-1.9,2-7.6,1.67-11,1-20-3.64-19.56-89.23-22.68-104.73l-6.09-16.89L403,376.5c-20.83-32.38-41.05-90-48.12-121.57-1.75-2.52-2.87-10.36-4.61-12.88l-12-17.27c-1.54-2.23-32.12-41.64-32.12-41.64-66.6-75.48-134.88-150.5-197.38-229.39"/>
  <path class="cls-7" d="M878.83-344c6,100.47,5.09,201.91,5.75,302.57,0,0,3.47,49.76,3.81,52.45L891,31.9c.38,3,4.77,9.63,5.15,12.68,15.77,28.24,39.11,84.68,45.16,122.7l.63,5L948.64,189c8,13.63,65.4,77.12,52.89,93.19-2.15,2.77-6.16,6.83-8.93,6.59-21.34-2.33-51.57-63.5-76.73-83.08-1.32-1-2.42-1.24-5.46-.87s-.18,16.67-.18,16.67c20.88,49.13,39.39,86,52.48,127,8.42,26.54-26.6,54.7-82.75-106.59-13-27-24.37-22.77-25.64-10.12,1.44,51.56,8.77,99.88,11,148.48,1.49,31-27.85,33.21-34.08-2.41-7.82-44.58-15.82-86.75-18.82-131.81-.47-6.6-3.64-10.13-7.51-9.65s-3.35.77-7.45,6-2.8,10-4.34,18.62c-29.34,168.15-77,148.64-27.61-35.45,3.31-18.25-4.15-121-28.16-58.93-4.38,11.61-8.16,22.31-11,34.44-5.75,28.31-66.68,71.83-50.2,17.08,7.91-10,22.67-52.78,25.65-66.12C697,114.14,734.14,59.79,753.82,34.5,776.39,5.64,734.94-249.42,725.76-323c-.25-2,151.53-20.92,151.53-20.92"/>
  <path class="cls-7" d="m1569.9 1724.3s-125.77 87-126.91 85.4c-42.18-60.94-181.28-278.72-217.34-285.19-31.53-5.74-95.41-21.52-117.18-53-11.11-8-50.61-30-63.19-32.19-48.78-29.83 25.66-38 48.81-20.72 10.24 7.12 20.19 12.58 31.19 18.31 59.29 30.3-3.64-51.3-18.28-62.7-159.49-104.34-137-150.63-3-44.83 6.9 5.41 9.08 9.79 15.64 11s6.38 1.75 9.58-0.46 3.22-7-0.83-12.2c-27.79-35.59-49.94-72.37-73.82-110.81-19.1-30.7 4.26-48.59 23.8-24.51 30.71 37.74 57.45 78.65 90.74 118 9.38 8.58 20.7 4.19 12.37-24.64-65.64-157.67-20.76-160-9.35-134.62 17.61 39.34 28.36 79.13 45.54 129.67 0 0 8.63 14.12 11.25 12.31s3.2-2.64 3.49-4.28c5.71-31.36-12.53-97.11 1.83-113.08 1.9-2 7.6-1.67 11-1 20 3.64 19.56 89.23 22.68 104.73l6.09 16.89 2.89 4.17c20.83 32.38 41.05 90 48.12 121.57 1.75 2.52 2.87 10.36 4.61 12.88l12 17.27c1.54 2.23 32.12 41.64 32.12 41.64 66.6 75.48 134.88 150.5 197.38 229.39"/>
  <path class="cls-7" d="M801.11,2021c-6-100.47-5.09-201.91-5.75-302.57,0,0-3.47-49.76-3.81-52.45l-2.6-20.85c-.38-3-4.77-9.63-5.15-12.68-15.77-28.24-39.11-84.68-45.16-122.7l-.63-5-6.71-16.65c-8-13.63-65.4-77.12-52.89-93.19,2.15-2.77,6.16-6.83,8.93-6.59,21.34,2.33,51.57,63.5,76.73,83.08,1.32,1,2.42,1.24,5.46.87s.18-16.67.18-16.67c-20.88-49.13-39.39-86-52.48-127-8.42-26.54,26.6-54.7,82.75,106.59,13,27,24.37,22.77,25.64,10.12-1.44-51.56-8.77-99.88-11-148.48-1.49-31,27.85-33.21,34.08,2.41,7.82,44.58,15.82,86.75,18.82,131.81.47,6.6,3.64,10.13,7.51,9.65s3.35-.77,7.45-6,2.8-10,4.34-18.62c29.34-168.15,77-148.64,27.61,35.45-3.31,18.25,4.15,121,28.16,58.93,4.38-11.61,8.16-22.31,11-34.44,5.75-28.31,66.68-71.83,50.2-17.08-7.91,10-22.67,52.78-25.65,66.12,4.73,37.94-32.38,92.29-52.06,117.58C903.56,1671.39,945,1926.46,954.18,2000c.25,2-151.53,20.92-151.53,20.92"/>
  <path class="cls-7" d="M-227.66,1412.28s-64.12-138.87-62.3-139.71c67.29-31.07,305.74-130.65,318.32-165.06,11.07-30.07,37.6-90.29,72.32-106.32,9.75-9.57,38.25-44.7,42.58-56.71,37.77-42.92,33,31.81,12,51.65-8.78,8.86-15.86,17.73-23.4,27.58-40,53.2,51.17,5.23,64.91-7.23,130.21-139.17,171.94-109,44.69,4.71-6.52,5.87-11.21,7.26-13.52,13.52s-2.83,6-1.19,9.52,6.31,4.37,12.16,1.28c39.84-21.26,79.88-36.75,121.85-53.67,33.53-13.53,47.14,12.55,20.05,27.66-42.45,23.76-87.36,43.07-131.89,69.09-10.06,7.77-7.69,19.67,22.14,16.42,166.61-37.55,161.21,7.07,134.22,13.94-41.78,10.58-82.82,14.33-135.57,22.56,0,0-15.4,6.07-14.06,9s2.05,3.6,3.62,4.18c29.92,11,97.82,4.36,111.08,21.25,1.67,2.22.34,7.77-.87,11.06-7,19.11-91.27,3.92-107.07,4.33l-17.68,3.09-4.61,2.13c-35.47,15-95.72,25-128,26.49-2.79,1.29-10.7,1-13.49,2.33l-19.07,8.81c-2.46,1.14-46.54,24.48-46.54,24.48-85.81,52.62-171.46,107-259.92,155"/>
  <path class="cls-7" d="M-387.76,603.91c100,11.38,199.78,29.71,299.05,46.37,0,0,49.61,5.14,52.32,5.27l21,1c3.06.15,10.31-3,13.38-2.89,30.53-10.68,90.14-24,128.64-23.39l5.07.25,17.55-3.75c14.8-5.54,87.22-51.16,100.9-36.08,2.35,2.6,5.67,7.25,5,9.93-6,20.62-71.42,39.88-95,61.3-1.24,1.12-1.64,2.17-1.79,5.23s16.39,3,16.39,3c52-12.12,91.45-24,134.15-29.85,27.6-3.74,49.31,35.61-119.23,63.19-28.88,8.16-26.62,20.09-14.38,23.52,51,7.45,99.9,8.54,148.17,14.67,30.77,3.86,27.92,33.15-8.23,33.16-45.26,0-88.18.66-133.09-4.13-6.58-.68-10.61,1.85-10.8,5.74s.19,3.44,4.67,8.38,9.35,4.47,17.6,7.48c160.6,57.81,133.19,101.38-39.67,21.11-17.41-6.4-119.95-16.72-62.89,17.61,10.68,6.31,20.57,11.87,32,16.8,26.9,10.53,59.29,78,8.2,52.39-8.52-9.51-48.1-31.41-60.72-36.64-38.19-1.86-85.35-47.76-106.88-71.5-24.55-27.19-282.94-30.22-357-33.83-2-.1,5.45-152.87,5.45-152.87"/>
 </g>
</svg>
