<?xml version="1.0" encoding="UTF-8" standalone="no"?>
<!DOCTYPE svg PUBLIC "-//W3C//DTD SVG 1.1//EN" "http://www.w3.org/Graphics/SVG/1.1/DTD/svg11.dtd">
<svg xmlns="http://www.w3.org/2000/svg" width="191.966" height="186.527" viewBox="0 0 191.96587 186.52684">
				<path style="line-height:normal;text-indent:0;text-align:start;text-decoration-line:none;text-decoration-style:solid;text-decoration-color:#000000;text-transform:none;block-progression:tb;isolation:auto;mix-blend-mode:normal" d="M121.783 	18.23l-.988 1.714.722 1.436c14.306 12.23 14.072 12.284 23.08 26.258-12.732-8.697-18.14-11.42-18.14-11.42-9.33-5.67-23.575-10.725-41.84-8.366-2.414.044-4.11.64-5.142.842-.357.404-.56 1.39-.534 1.795.08.286.582 1.088.732 1.157.533.554 1.57.773 2.703 1.1 11.436 1.46 13.896 2.3 22.723 7.396-27.254-3.622-36.33-5.295-59.407 3.422C22.595 52.29 5.68 71.28 6.323 100.178c.095 5.466-.033 6.96 1.613 14.958.904 2.654 1.445 4.666 4.9 7.695.377.264.98.298 1.425.253.4-.11.576-.873.716-1.143.05-.324.03-1.11.012-1.44-.018-.332-.103-5.984-.148-6.18.384-7.654.067-8.774.736-10 .725.58 1.016 9.52 3.147 16.8.066.246.56 2.194 2.162 5.413 1.05.542 1.38.412 2.185.468.368-.344.7-.33.784-.68 1.498-4.746-2.212-11.92-.446-15.77 2.786 6.724 2.973 9.29 7.248 17.16 8.886 16.357 22.178 28.156 34.413 33.334 1.434.608 2.77.104 3.574.385l1.026-.484.808-.85.025-1.007-.245-1.206c-10.395-8.984-11.963-9.607-24.192-27.15 9.723 9.98 17.878 16.124 28.405 19.265 9.416 2.81 21.14 3.666 33.756 3.026.13 0 1.294-.21 1.397-.312.964-.163.67-1.475.847-2.208-.265-.588-.367-1.384-1.218-1.818-7.033-1.74-13.267-3.747-18.087-5.806-7.713-3.28-6.12-3.237-6.12-3.237s12.932 3.307 22.246 3.013c23.088-.73 24.224-2.153 39.262-6.7 15.904-7.75 25.383-16.226 32.204-25.774 6.735-9.43 9.316-21.483 8.162-36.23-.496-5.414-3.732-12.014-6.04-17.436-.514-.827-1.132-1.308-1.83-1.558-.14-.018-1.166.213-1.268.286-.542.27-.873 1.84-.92 2.367.25 3.005.723 3.98.144 14.136-2.54-10.59-1.684-8.623-5.946-19.117-.583-.722-.548-1.15-.996-1.382-.148-.042-1.733-.386-1.854-.26-.91.006-.98 1.94-1.01 2.692.705 3.373 1.234 4.077 1.565 14.028-9.36-25.146-19.36-37.608-44.543-49.29z" color="#000" font-family="sans-serif" white-space="normal" overflow="visible" solid-color="#000000" fill="#fff" fill-rule="evenodd"></path><path d="M95.825 120.806c-.1-.042-.282-.16-.403-.26-4.82-5.548-9.944-9.924-10.598-17.423-.574-6.182 1.536-11.134 7.314-13.34 5.86-1.672 11.036 2.78 9.377 7.925-.255.178-.613.137-.948-.11-10.465-9.287-13.467 7.385-2.082 7.787 5.202.118 7.805-3.715 9.132-8.3 2.086-7.48-4.882-14.052-10.43-14.473-10.783-1.274-16.8 6.625-18.012 14.706-.817 4.77.33 8.693 1.953 12.622 0 0 .114.202.056.276-.092.118-.298.054-.446.02-.19-.042-.386-.082-.564-.163-.174-.08-.484-.313-.484-.313-2.552-2.543-3.666-6.657-4.265-9.588-1.605-11.24 3.724-22.063-10.563-27.01-.422-.355-.396-.76.052-.99 6.312-1.918 12.262.932 15.838 5.82 2.18-2.36 4.878-3.683 7.88-5.106-.9-2.087-1.46-4.107-1.726-6.8 4.983 3.483 11.35 3.647 16.343-.02-.198 2.2-.983 4.167-1.886 6.163 2.974 1.13 5.585 1.467 8.106 3.543.446.328.742-.82.992-1.502 3.608-6.06 11.338-6.97 17.253-3.92.278.285.298.41.06.65l-.264.067c-19.056.793-9.41 17.08-11.54 28.495-2.25 8.825-11.344 15.038-17.746 19.9l-1.598 1.212c-.224.174-.567.23-.8.132z" fill="#007f7f"/><path style="line-height:normal;text-indent:0;text-align:start;text-decoration-line:none;text-decoration-style:solid;text-decoration-color:#000000;text-transform:none;block-progression:tb;isolation:auto;mix-blend-mode:normal" d="M123.086 19.574l-.533.834c8.582 7.246 33.327 24.056 33.947 51.13v.013c0-.015-.003.004-.03.052-.005.007-.016.015-.02.023-2.7-11.073-12.222-22.538-25.565-30.752-13.56-8.348-31.06-13.326-49.324-10.967l-.017.002-.016.004c-.112.023-.33.056-.445.352-.057.148-.032.312.008.406.04.094.084.145.123.186.156.162.276.206.426.275.298.14.61.264.973.272h.002c13.077.273 30.497 5.362 39.535 17.522-21.44-10.685-49.96-11.84-73.037-3.123C26.016 54.527 8.36 73.248 9 102.147v.008c-.075 6.003.7 11.73 3.176 16.84.154.342.288.605.416.805.13.203.232.36.463.48.115.06.292.1.46.052.17-.046.284-.158.35-.252.132-.187.155-.338.18-.5.05-.324.045-.69.027-1.02-.018-.33-.04-.576-.086-.77-1.74-7.53.536-19.34 3.362-28.095l.002-.002c-.774 9.594.233 21.845 3.293 32.338.065.246.183.47.35.794.166.324.364.677.562.955.1.138.187.257.33.37.07.057.158.127.334.15.174.025.437-.092.538-.233.202-.285.142-.443.125-.665-.017-.21-.064-.477-.137-.812-1-8.016-3.16-17.445.902-24.74v.004C25.912 125 44.573 147.96 67.272 159.598l.554-.824c-19.12-16.512-26-20.454-31.94-52.383.005-.038.112-.26.202-.454 6.917 27.156 37.138 46.98 72.29 45.34.128 0 .296-.06.4-.163.104-.103.143-.216.16-.302.038-.173.012-.284-.018-.394-.03-.11-.072-.213-.14-.316-.07-.104-.158-.23-.378-.3l-.03-.01-.034-.005c-5.15-.93-14.398-3.096-22.666-6.612-7.714-3.28-14.44-7.765-16.398-13.306 18.293 11.927 47.323 13.39 71.685 4.437 24.862-9.136 44.837-29.19 43.04-59.93l-.002-.01v-.01c-.496-5.412-1.852-11.345-4.16-16.766-.187-.455-.268-.696-.553-.92-.07-.056-.17-.117-.31-.135-.14-.018-.307.03-.41.104-.203.146-.228.288-.26.398-.065.22-.07.42-.07.61-.003.192-.003.32.02.462 1.472 8.944.818 18.36-2.386 27.266.24-10.338-1.34-22.013-5.915-32.053l-.008-.02-.01-.017c-.11-.197-.2-.34-.287-.46-.087-.116-.113-.238-.41-.323-.15-.043-.42.02-.54.146-.12.127-.135.23-.15.303-.028.146-.017.24-.008.347.04.428.19.978.223 1.103 2.018 7.95 3.845 17.452-.012 25.34-2.484-26.083-20.486-48.482-45.668-60.166zM81.078 45.72c6.692-.103 13.407.77 19.77 2.526 12.725 3.51 24.034 10.538 30.968 20.234 6.935 9.697 9.533 22.048 4.834 36.39-1.147 3.504-4.057 6.308-7.646 8.323-3.59 2.016-7.84 3.23-11.55 3.586l-.046.988c10.17 1.886 18.7-4.13 24.856-10.538 3.078-3.203 5.58-6.518 7.42-9.03.92-1.257 1.675-2.314 2.246-3.046.105-.134.166-.193.258-.304-1.206 8.618-6.57 16.44-13.727 21.95-7.23 5.566-16.24 8.76-24.42 8.104l-.114.992.035.004h.003c14.19 2.138 24.295-1.99 31.527-7.576 7.176-5.54 11.548-12.48 14.428-16.107.275-.11.635-.194.957-.176.228.014.336.112.473.19-12.252 28.517-42.965 36.97-68.56 30.655-12.857-3.172-24.39-10.073-31.593-19.99-7.203-9.918-10.114-22.844-5.714-38.23 1.15-1.966 1.708-2.92 2.797-4.083 1.468-1.57 2.99-2.812 5.21-3.863 3.87-1.83 8.483-3.04 12.42-4.343l-.094-.97c-11.754-1.482-19.216 3.768-24.518 9.585-2.65 2.91-4.783 5.96-6.68 8.39-1.702 2.183-3.214 3.69-4.633 4.34.007-.058.013-.095.016-.154v-.002c.654-7.663 7.054-15.605 15.11-21.236 8.057-5.63 17.74-8.915 24.665-7.562h.006l.195-.98h-.004c-15.624-3.194-26.495 1.51-33.907 7.376-3.707 2.934-6.556 6.153-8.735 8.813-2.164 2.642-3.73 4.74-4.588 5.357-.317.122-.755.287-1.04.314-.14.014-.194-.01-.194-.007C37.99 61.96 48.926 53.38 61.443 49.07c6.274-2.16 12.943-3.243 19.635-3.347z" color="#000" font-family="sans-serif" white-space="normal" overflow="visible" solid-color="#000000" fill="#0170c2" fill-rule="evenodd"/>
			</svg>
