<?xml version="1.0" standalone="no"?>
<!DOCTYPE svg PUBLIC "-//W3C//DTD SVG 20010904//EN"
 "http://www.w3.org/TR/2001/REC-SVG-20010904/DTD/svg10.dtd">
<svg version="1.0" xmlns="http://www.w3.org/2000/svg"
 width="768.000000pt" height="768.000000pt" viewBox="0 0 768.000000 768.000000"
 preserveAspectRatio="xMidYMid meet">
<metadata>
Created by potrace 1.11, written by Peter Selinger 2001-2013
</metadata>
<g transform="translate(0.000000,768.000000) scale(0.100000,-0.100000)"
fill="#000000" stroke="none">
<path d="M4853 6807 c-20 -33 -20 -34 -2 -70 11 -20 25 -40 33 -44 8 -4 42
-33 77 -63 68 -60 79 -70 158 -138 29 -26 72 -65 96 -87 23 -22 51 -47 61 -56
73 -62 220 -243 321 -397 42 -64 98 -150 125 -191 27 -40 47 -75 45 -77 -2 -3
-85 49 -183 114 -99 65 -193 127 -211 138 -215 132 -399 236 -518 294 -78 37
-193 89 -198 89 -4 0 -94 30 -122 41 -46 18 -261 71 -305 75 -8 1 -31 5 -50 9
-40 8 -67 12 -165 22 -87 10 -449 10 -530 1 -33 -4 -85 -9 -115 -12 -71 -6
-116 -14 -162 -27 -32 -9 -39 -17 -44 -45 -14 -76 51 -114 237 -137 24 -3 55
-8 69 -10 14 -3 41 -7 60 -10 105 -17 190 -35 212 -47 10 -5 24 -9 33 -9 18 0
190 -73 248 -106 23 -13 58 -31 77 -41 19 -9 49 -25 65 -36 l30 -19 -65 7
c-36 3 -74 8 -85 11 -11 3 -38 7 -60 9 -22 2 -56 6 -75 9 -19 2 -55 7 -79 10
-25 3 -63 8 -85 10 -113 15 -183 23 -258 30 -32 3 -82 8 -110 11 -29 3 -93 8
-143 10 -49 3 -105 6 -123 8 -18 2 -35 0 -38 -5 -3 -5 -11 -5 -17 -1 -16 10
-87 10 -87 0 0 -4 -8 -3 -19 2 -10 6 -21 8 -24 5 -3 -3 -38 -7 -78 -9 -78 -4
-164 -12 -214 -21 -16 -3 -39 -7 -50 -9 -45 -6 -103 -18 -160 -32 -33 -8 -69
-17 -80 -19 -38 -7 -267 -76 -301 -90 -19 -8 -34 -12 -34 -9 0 3 -14 -2 -31
-10 -17 -9 -56 -25 -87 -35 -31 -10 -75 -26 -97 -35 -22 -9 -56 -24 -75 -32
-19 -8 -64 -28 -100 -46 -36 -17 -68 -31 -71 -31 -10 -1 -267 -149 -291 -168
-13 -10 -48 -36 -78 -57 -30 -22 -59 -44 -65 -48 -90 -72 -137 -114 -225 -202
-58 -59 -119 -124 -137 -146 -84 -107 -123 -159 -123 -166 0 -4 -6 -14 -13
-21 -14 -14 -117 -186 -122 -203 -12 -40 -18 -55 -25 -55 -4 0 -10 -10 -14
-22 -3 -13 -6 -25 -7 -28 -1 -3 -10 -22 -20 -42 -19 -38 -96 -267 -102 -303
-1 -11 -6 -26 -10 -32 -5 -7 -6 -13 -3 -13 2 0 -2 -26 -9 -57 -7 -32 -16 -75
-19 -95 -3 -21 -8 -53 -11 -70 -3 -18 -7 -59 -9 -90 -2 -31 -6 -60 -8 -65 -7
-13 -2 -483 6 -528 3 -22 8 -60 11 -85 2 -25 7 -56 10 -70 3 -14 8 -38 10 -55
5 -28 18 -94 20 -105 1 -3 7 -25 15 -50 7 -25 13 -48 12 -52 -1 -5 2 -8 7 -8
5 0 16 -17 24 -37 31 -77 133 -183 176 -183 16 0 33 6 38 13 4 6 9 120 10 252
2 315 8 454 22 468 6 6 11 7 12 2 0 -6 2 -19 5 -30 6 -28 13 -72 19 -125 3
-25 8 -56 10 -70 53 -333 49 -307 58 -330 3 -8 11 -40 18 -70 6 -30 14 -59 18
-65 3 -5 6 -14 7 -20 1 -5 16 -45 34 -87 35 -84 63 -106 119 -93 26 5 31 12
40 53 9 43 8 161 -2 207 -2 11 -8 42 -11 68 -4 27 -9 59 -12 70 -17 91 -20
156 -9 213 6 35 23 37 29 3 1 -8 8 -24 14 -36 7 -13 9 -23 5 -23 -4 0 -2 -5 5
-12 7 -7 12 -17 12 -24 0 -6 8 -29 17 -50 9 -22 17 -41 18 -44 3 -17 31 -92
47 -130 11 -25 24 -54 28 -65 13 -33 70 -158 82 -180 6 -11 27 -49 46 -85 20
-36 50 -89 69 -118 18 -29 33 -54 33 -57 0 -4 56 -90 72 -110 5 -5 34 -46 65
-90 143 -202 361 -438 532 -575 24 -19 54 -45 67 -57 13 -13 26 -23 28 -23 5
0 62 -41 126 -91 13 -10 30 -19 36 -19 7 0 14 -3 16 -7 6 -14 67 -53 82 -53 8
0 16 -4 18 -9 5 -14 191 -108 240 -122 73 -20 136 -18 172 6 28 19 31 26 30
69 0 52 2 49 -126 158 -268 229 -372 337 -547 568 -19 25 -38 46 -43 48 -4 2
-8 10 -8 18 0 8 -4 14 -9 14 -5 0 -12 8 -15 18 -3 9 -16 28 -28 42 -13 14 -37
46 -54 70 -17 25 -52 77 -79 115 l-48 70 83 -80 c46 -44 95 -92 109 -106 14
-14 60 -54 101 -89 41 -35 80 -69 86 -74 6 -6 22 -18 34 -26 33 -22 113 -83
128 -97 7 -7 17 -13 22 -13 5 0 15 -6 22 -13 17 -16 144 -92 183 -109 17 -7
32 -15 35 -18 11 -12 51 -30 65 -30 8 0 15 -4 15 -10 0 -5 11 -10 24 -10 14 0
27 -4 31 -10 5 -8 199 -76 245 -85 8 -2 15 -4 15 -5 0 -1 7 -3 15 -5 8 -2 49
-11 90 -20 93 -20 152 -30 295 -50 150 -21 317 -29 605 -29 275 0 349 8 351
37 0 7 2 25 4 41 2 17 -3 44 -11 62 -13 26 -25 34 -72 48 -31 8 -66 17 -77 19
-11 2 -27 6 -35 9 -8 3 -35 11 -60 18 -25 7 -52 15 -60 18 -8 3 -22 6 -31 8
-31 7 -277 93 -374 131 -126 51 -259 113 -263 124 -2 5 -10 9 -18 9 -8 0 -14
4 -14 9 0 6 12 6 32 0 51 -14 240 -53 318 -65 19 -2 58 -9 85 -14 176 -32 383
-40 675 -27 177 9 385 23 385 26 0 1 20 4 45 6 57 4 128 13 160 20 13 2 42 7
65 11 54 7 255 58 335 84 36 12 70 23 75 24 6 2 30 9 55 16 25 8 48 14 53 16
4 1 8 2 10 4 1 1 9 3 17 5 75 16 315 118 340 145 3 3 35 21 72 40 38 19 68 38
68 42 0 4 10 10 23 14 24 7 285 179 329 216 14 13 39 32 54 43 93 67 280 244
391 371 104 120 253 327 253 352 0 6 3 12 8 14 7 3 49 86 86 170 9 20 32 84
50 141 29 89 42 139 61 237 2 8 4 15 5 15 1 0 3 14 4 30 2 17 8 64 14 105 13
95 12 71 16 310 2 113 0 210 -5 215 -4 6 -4 17 1 24 4 8 4 26 0 40 -5 14 -11
45 -14 68 -8 64 -33 156 -63 233 -4 8 -7 18 -8 23 -2 4 -4 9 -5 12 -1 3 -3 8
-5 13 -1 4 -6 18 -12 32 -6 14 -23 54 -38 90 -81 196 -105 243 -133 266 -47
41 -104 23 -118 -39 -8 -35 -8 -43 0 -132 10 -93 5 -456 -5 -449 -4 2 -10 18
-13 36 -36 193 -117 459 -186 613 -5 11 -17 40 -28 65 -11 25 -26 53 -34 64
-15 20 -85 32 -105 18 -18 -11 -26 -102 -14 -148 26 -98 38 -192 46 -367 4
-82 3 -117 -4 -112 -6 3 -11 15 -11 25 0 10 -4 21 -9 24 -4 3 -14 26 -21 51
-7 25 -17 48 -21 51 -5 3 -9 12 -9 20 0 8 -11 39 -24 67 -30 64 -40 90 -38
100 1 4 -2 7 -8 7 -5 0 -10 5 -10 11 0 18 -152 319 -161 319 -5 0 -9 7 -9 15
0 17 -125 214 -193 305 -122 162 -332 377 -462 473 -44 32 -92 68 -101 76 -6
4 -37 26 -70 47 -32 21 -61 41 -64 44 -5 5 -17 12 -100 62 -101 60 -134 77
-292 158 -121 62 -169 81 -211 85 -54 5 -55 5 -74 -28z"/>
</g>
</svg>
